<svg width="64" height="64" viewBox="0 0 64 64" fill="none" xmlns="http://www.w3.org/2000/svg">
<rect width="64" height="64" rx="14" fill="url(#paint0_linear_81_353)"/>
<rect width="64" height="64" rx="14" fill="url(#paint1_linear_81_353)"/>
<rect width="64" height="64" rx="14" fill="url(#paint2_linear_81_353)"/>
<path d="M32.1475 14C36.1094 14 39.2648 14.2797 41.6133 14.8389C42.5599 15.0665 43.4268 15.3497 44.2139 15.6875C44.4762 15.8001 44.73 15.9182 44.9746 16.043C45.9531 16.5422 46.7894 17.14 47.4844 17.835C48.0115 18.3621 48.4819 18.9663 48.8945 19.6484C49.0321 19.8758 49.1633 20.1118 49.2881 20.3564C49.5377 20.8457 49.7613 21.3696 49.96 21.9277C50.109 22.3465 50.2438 22.7846 50.3643 23.2422C50.4044 23.3946 50.4426 23.5493 50.4795 23.7061C50.6033 24.2251 50.7137 24.784 50.8105 25.3828C50.9559 26.2815 51.0706 27.2701 51.1553 28.3486C51.2117 29.0675 51.2547 29.8263 51.2842 30.625C51.2989 31.0245 51.3104 31.434 51.3184 31.8535V32.5723C51.2545 35.9272 50.9757 38.6438 50.4805 40.7207C49.8893 43.2448 48.8902 45.2019 47.4844 46.5918C46.0945 47.9976 44.1373 48.9958 41.6133 49.5869C39.2648 50.1461 36.1095 50.4258 32.1475 50.4258C28.1695 50.4258 25.0141 50.1461 22.6816 49.5869C20.1736 48.9958 18.2164 47.9976 16.8105 46.5918C15.4207 45.202 14.4225 43.2447 13.8154 40.7207C13.3202 38.612 13.0479 35.8558 13 32.4531V31.9736C13.0479 28.5708 13.3202 25.8149 13.8154 23.7061C14.4225 21.1979 15.4207 19.2408 16.8105 17.835C18.2164 16.4451 20.1734 15.446 22.6816 14.8389C25.0141 14.2797 28.1695 14 32.1475 14ZM39.957 36.0508C39.4142 36.0188 38.9506 36.179 38.5674 36.5303C38.312 36.7537 38.0412 36.9777 37.7539 37.2012H37.7051C36.1724 38.3505 34.3205 38.9248 32.1494 38.9248C29.9142 38.9248 28.0139 38.3506 26.4492 37.2012C26.2576 37.0415 26.0815 36.8813 25.9219 36.7217C25.5706 36.3067 25.1397 36.0827 24.6289 36.0508C24.0861 36.0189 23.6234 36.1791 23.2402 36.5303C22.8252 36.8815 22.6013 37.3283 22.5693 37.8711C22.5374 38.382 22.6966 38.8456 23.0479 39.2607C23.3352 39.5801 23.6874 39.8994 24.1025 40.2188C24.1342 40.2189 24.1504 40.2348 24.1504 40.2666C26.3537 41.9269 29.0202 42.7568 32.1494 42.7568C35.2149 42.7568 37.8335 41.943 40.0049 40.3145V40.2666C40.388 39.9792 40.7552 39.6917 41.1064 39.4043C41.4896 39.053 41.6976 38.6213 41.7295 38.1104C41.7613 37.5677 41.6012 37.1048 41.25 36.7217C40.8988 36.3066 40.4679 36.0828 39.957 36.0508Z" fill="url(#paint3_linear_81_353)"/>
<path d="M32.1475 14C36.1094 14 39.2648 14.2797 41.6133 14.8389C42.5599 15.0665 43.4268 15.3497 44.2139 15.6875C44.4762 15.8001 44.73 15.9182 44.9746 16.043C45.9531 16.5422 46.7894 17.14 47.4844 17.835C48.0115 18.3621 48.4819 18.9663 48.8945 19.6484C49.0321 19.8758 49.1633 20.1118 49.2881 20.3564C49.5377 20.8457 49.7613 21.3696 49.96 21.9277C50.109 22.3465 50.2438 22.7846 50.3643 23.2422C50.4044 23.3946 50.4426 23.5493 50.4795 23.7061C50.6033 24.2251 50.7137 24.784 50.8105 25.3828C50.9559 26.2815 51.0706 27.2701 51.1553 28.3486C51.2117 29.0675 51.2547 29.8263 51.2842 30.625C51.2989 31.0245 51.3104 31.434 51.3184 31.8535V32.5723C51.2545 35.9272 50.9757 38.6438 50.4805 40.7207C49.8893 43.2448 48.8902 45.2019 47.4844 46.5918C46.0945 47.9976 44.1373 48.9958 41.6133 49.5869C39.2648 50.1461 36.1095 50.4258 32.1475 50.4258C28.1695 50.4258 25.0141 50.1461 22.6816 49.5869C20.1736 48.9958 18.2164 47.9976 16.8105 46.5918C15.4207 45.202 14.4225 43.2447 13.8154 40.7207C13.3202 38.612 13.0479 35.8558 13 32.4531V31.9736C13.0479 28.5708 13.3202 25.8149 13.8154 23.7061C14.4225 21.1979 15.4207 19.2408 16.8105 17.835C18.2164 16.4451 20.1734 15.446 22.6816 14.8389C25.0141 14.2797 28.1695 14 32.1475 14ZM39.957 36.0508C39.4142 36.0188 38.9506 36.179 38.5674 36.5303C38.312 36.7537 38.0412 36.9777 37.7539 37.2012H37.7051C36.1724 38.3505 34.3205 38.9248 32.1494 38.9248C29.9142 38.9248 28.0139 38.3506 26.4492 37.2012C26.2576 37.0415 26.0815 36.8813 25.9219 36.7217C25.5706 36.3067 25.1397 36.0827 24.6289 36.0508C24.0861 36.0189 23.6234 36.1791 23.2402 36.5303C22.8252 36.8815 22.6013 37.3283 22.5693 37.8711C22.5374 38.382 22.6966 38.8456 23.0479 39.2607C23.3352 39.5801 23.6874 39.8994 24.1025 40.2188C24.1342 40.2189 24.1504 40.2348 24.1504 40.2666C26.3537 41.9269 29.0202 42.7568 32.1494 42.7568C35.2149 42.7568 37.8335 41.943 40.0049 40.3145V40.2666C40.388 39.9792 40.7552 39.6917 41.1064 39.4043C41.4896 39.053 41.6976 38.6213 41.7295 38.1104C41.7613 37.5677 41.6012 37.1048 41.25 36.7217C40.8988 36.3066 40.4679 36.0828 39.957 36.0508Z" fill="url(#paint4_linear_81_353)"/>
<path d="M32.1475 14C36.1094 14 39.2648 14.2797 41.6133 14.8389C42.5599 15.0665 43.4268 15.3497 44.2139 15.6875C44.4762 15.8001 44.73 15.9182 44.9746 16.043C45.9531 16.5422 46.7894 17.14 47.4844 17.835C48.0115 18.3621 48.4819 18.9663 48.8945 19.6484C49.0321 19.8758 49.1633 20.1118 49.2881 20.3564C49.5377 20.8457 49.7613 21.3696 49.96 21.9277C50.109 22.3465 50.2438 22.7846 50.3643 23.2422C50.4044 23.3946 50.4426 23.5493 50.4795 23.7061C50.6033 24.2251 50.7137 24.784 50.8105 25.3828C50.9559 26.2815 51.0706 27.2701 51.1553 28.3486C51.2117 29.0675 51.2547 29.8263 51.2842 30.625C51.2989 31.0245 51.3104 31.434 51.3184 31.8535V32.5723C51.2545 35.9272 50.9757 38.6438 50.4805 40.7207C49.8893 43.2448 48.8902 45.2019 47.4844 46.5918C46.0945 47.9976 44.1373 48.9958 41.6133 49.5869C39.2648 50.1461 36.1095 50.4258 32.1475 50.4258C28.1695 50.4258 25.0141 50.1461 22.6816 49.5869C20.1736 48.9958 18.2164 47.9976 16.8105 46.5918C15.4207 45.202 14.4225 43.2447 13.8154 40.7207C13.3202 38.612 13.0479 35.8558 13 32.4531V31.9736C13.0479 28.5708 13.3202 25.8149 13.8154 23.7061C14.4225 21.1979 15.4207 19.2408 16.8105 17.835C18.2164 16.4451 20.1734 15.446 22.6816 14.8389C25.0141 14.2797 28.1695 14 32.1475 14ZM39.957 36.0508C39.4142 36.0188 38.9506 36.179 38.5674 36.5303C38.312 36.7537 38.0412 36.9777 37.7539 37.2012H37.7051C36.1724 38.3505 34.3205 38.9248 32.1494 38.9248C29.9142 38.9248 28.0139 38.3506 26.4492 37.2012C26.2576 37.0415 26.0815 36.8813 25.9219 36.7217C25.5706 36.3067 25.1397 36.0827 24.6289 36.0508C24.0861 36.0189 23.6234 36.1791 23.2402 36.5303C22.8252 36.8815 22.6013 37.3283 22.5693 37.8711C22.5374 38.382 22.6966 38.8456 23.0479 39.2607C23.3352 39.5801 23.6874 39.8994 24.1025 40.2188C24.1342 40.2189 24.1504 40.2348 24.1504 40.2666C26.3537 41.9269 29.0202 42.7568 32.1494 42.7568C35.2149 42.7568 37.8335 41.943 40.0049 40.3145V40.2666C40.388 39.9792 40.7552 39.6917 41.1064 39.4043C41.4896 39.053 41.6976 38.6213 41.7295 38.1104C41.7613 37.5677 41.6012 37.1048 41.25 36.7217C40.8988 36.3066 40.4679 36.0828 39.957 36.0508Z" fill="url(#paint5_linear_81_353)"/>
<defs>
<linearGradient id="paint0_linear_81_353" x1="32" y1="0" x2="32" y2="64" gradientUnits="userSpaceOnUse">
<stop stop-color="#313131"/>
<stop offset="1" stop-color="#141414"/>
</linearGradient>
<linearGradient id="paint1_linear_81_353" x1="32" y1="0" x2="32" y2="64" gradientUnits="userSpaceOnUse">
<stop stop-color="#292929"/>
<stop offset="1" stop-color="#0C0C0C"/>
</linearGradient>
<linearGradient id="paint2_linear_81_353" x1="32" y1="0" x2="32" y2="64" gradientUnits="userSpaceOnUse">
<stop stop-color="#313131"/>
<stop offset="1" stop-color="#141414"/>
</linearGradient>
<linearGradient id="paint3_linear_81_353" x1="32.1593" y1="14" x2="32.1593" y2="50.4258" gradientUnits="userSpaceOnUse">
<stop stop-color="#AFAFB0"/>
<stop offset="1" stop-color="#7F7F7F"/>
</linearGradient>
<linearGradient id="paint4_linear_81_353" x1="32.1593" y1="14" x2="32.1593" y2="47.3903" gradientUnits="userSpaceOnUse">
<stop stop-color="#A4A4A4"/>
<stop offset="1" stop-color="#4F4F4F"/>
</linearGradient>
<linearGradient id="paint5_linear_81_353" x1="32.1593" y1="14" x2="32.1593" y2="47.3903" gradientUnits="userSpaceOnUse">
<stop stop-color="#BABABA"/>
<stop offset="1" stop-color="#666666"/>
</linearGradient>
</defs>
</svg>
