<svg width="41" height="41" viewBox="0 0 41 41" fill="none" xmlns="http://www.w3.org/2000/svg">
<path d="M25 0C33.8366 0 41 7.16344 41 16V25C41 33.8366 33.8366 41 25 41H16C7.16344 41 0 33.8366 0 25V16C0 7.16344 7.16344 0 16 0H25ZM32.9336 22.8662C31.7557 21.9828 30.085 22.222 29.2012 23.3994V23.3975L29.1963 23.4043C29.1804 23.4244 29.1496 23.4621 29.1055 23.5146C29.0171 23.62 28.874 23.7845 28.6787 23.9883C28.2859 24.3981 27.6958 24.954 26.9316 25.5098C25.3929 26.6289 23.2654 27.6669 20.667 27.667C18.0684 27.667 15.9402 26.6289 14.4014 25.5098C13.6373 24.954 13.047 24.3981 12.6543 23.9883C12.459 23.7845 12.3159 23.62 12.2275 23.5146C12.1835 23.4621 12.1536 23.4243 12.1377 23.4043L12.126 23.3906C11.2406 22.2208 9.57539 21.9854 8.40039 22.8662C7.22235 23.7498 6.98297 25.4214 7.86621 26.5996L10 25C7.96142 26.5289 7.87156 26.5977 7.86816 26.6016L7.86914 26.6035C7.87002 26.6047 7.87108 26.6061 7.87207 26.6074C7.87425 26.6103 7.8772 26.6137 7.87988 26.6172C7.88526 26.6243 7.89199 26.6329 7.89941 26.6426C7.91423 26.6618 7.93319 26.686 7.95605 26.7148C8.00203 26.7729 8.06431 26.8501 8.14258 26.9434C8.29896 27.1297 8.51988 27.3825 8.80371 27.6787C9.36921 28.2688 10.1957 29.0458 11.2646 29.8232C13.3925 31.3708 16.5989 33 20.667 33C24.7349 32.9999 27.9406 31.3707 30.0684 29.8232C31.1373 29.0459 31.9638 28.2688 32.5293 27.6787C32.8132 27.3825 33.035 27.1297 33.1914 26.9434C33.2696 26.8502 33.332 26.7729 33.3779 26.7148C33.4008 26.686 33.4198 26.6618 33.4346 26.6426C33.4419 26.633 33.4478 26.6242 33.4531 26.6172C33.4558 26.6137 33.4588 26.6103 33.4609 26.6074C33.462 26.6061 33.463 26.6047 33.4639 26.6035L33.4658 26.6016C33.4655 26.6 33.4201 26.5653 31.333 25L33.4668 26.5996C34.3502 25.4214 34.1117 23.7498 32.9336 22.8662Z" fill="white"/>
</svg>
